<svg xmlns="http://www.w3.org/2000/svg" width="18" height="18">
    <path fill-rule="evenodd" fill="#243036" d="M14.928 11.526c-.544 0-.986.234-.986-1.005V6.592c0-.222.442-1.005.986-1.005.545 0 .986.783.986 1.005v3.929c0 1.239-.441 1.005-.986 1.005zm-2.309 2.041h-.877v2.186a.996.996 0 0 1-.986 1.005.995.995 0 0 1-.986-1.005v-2.186H8.236v2.186a.995.995 0 0 1-.986 1.005.995.995 0 0 1-.985-1.005v-2.186h-.878a.77.77 0 0 1-.769-.772V5.618h8.771v7.177c0 .426.051.772-.77.772zM6.905 1.899 6.95.717c-.49-.07-.37-.162-.829-.205.063-.044.153-.022.201.048l.842 1.227a4.926 4.926 0 0 1 1.819-.342c.65 0 1.266.122 1.82.342L11.645.56c.048-.07.138-.092.201-.048.063.043.075.135.027.205l-.243 1.182c.72.601 1.624 1.745 1.739 3.079H4.598C4.713 3.644 5.616 2.5 6.905 1.899zm3.989 1.861a.486.486 0 0 0 .485-.487c0 .027-.217-.488-.485-.488s-.485.515-.485.488c0 .269.217.487.485.487zm-3.761 0a.487.487 0 0 0 .486-.487c0 .027-.218-.488-.486-.488-.267 0-.485.515-.485.488 0 .269.218.487.485.487zM3.39 11.526c-.895 0-.86.234-.86-1.005V6.592c0-.222-.035-1.005.86-1.005.193 0 .86.783.86 1.005v3.929c0 1.239-.667 1.005-.86 1.005z"/>
</svg>
