<svg xmlns="http://www.w3.org/2000/svg" width="44" height="44">
    <path fill-rule="evenodd" fill="#EBEEF4" d="M21.998 0c12.151 0 22.001 9.849 22.001 21.999 0 12.151-9.85 22-22.001 22C9.848 43.999.1 34.15.1 21.999.1 9.849 9.848 0 21.998 0z"/>
    <path fill-rule="evenodd" fill="#333" d="M28.919 25.1c-.635 0-1.15-.615-1.15-1.263v-4.583c0-.648.515-.444 1.15-.444.635 0 1.771-.204 1.771.444v4.583c0 .648-1.136 1.263-1.771 1.263zm-2.693 2.291h-1.025v2.55c0 .647-.515 1.173-.691 1.173-1.094 0-1.609-.526-1.609-1.173v-2.55h-1.79v2.55c0 .647-.515 1.173-1.149 1.173-.636 0-1.15-.526-1.15-1.173v-2.55h-1.025a.899.899 0 0 1-.897-.901v-8.373h10.232v8.373a.898.898 0 0 1-.896.901zm-6.668-13.613-.945-1.378c-.056-.082-.042-.19.031-.24.073-.051.178-.026.235.056l.981 1.431a5.768 5.768 0 0 1 2.123-.398 5.77 5.77 0 0 1 2.124.398l1.783-1.431c-.745-.082-.64-.107-.567-.056.073.05.087.158.031.24l-.945 1.378c1.502.702 2.557 2.036 3.581 3.593H16.868c.232-1.557 1.692-2.891 2.69-3.593zm4.655 2.171a.567.567 0 0 0 .566-.568c0 .289-.254-.569-.566-.569-.313 0-.566.858-.566.569 0 .314.253.568.566.568zm-4.388 0a.567.567 0 0 0 .566-.568c0 .289-.253-.569-.566-.569-.312 0-.566.858-.566.569 0 .314.254.568.566.568zM15.48 25.1c-1.067 0-1.582-.615-1.582-1.263v-4.583c0-.648.515-.444 1.582-.444.203 0 .718-.204.718.444v4.583c0 .648-.515 1.263-.718 1.263z"/>
</svg>
