<svg xmlns="http://www.w3.org/2000/svg" width="18" height="18">
    <path fill-rule="evenodd" fill="#243036" d="M14.928 11.526c-.545 0-.986.234-.986-1.005V6.592c0-.222.441-1.005.986-1.005.545 0 .986.783.986 1.005v3.929c0 1.239-.441 1.005-.986 1.005zm-2.309 2.041h-.877v2.185a.997.997 0 0 1-.987 1.006.996.996 0 0 1-.985-1.006v-2.185H8.236v2.185a.997.997 0 0 1-.986 1.006.996.996 0 0 1-.985-1.006v-2.185h-.879a.77.77 0 0 1-.768-.772V5.618h8.77v7.177c0 .426.052.772-.769.772zM6.904 1.898 6.94.717c-.48-.07-.36-.162-.819-.205.063-.044.153-.022.201.048l.842 1.227a4.926 4.926 0 0 1 1.819-.342c.65 0 1.266.122 1.82.342L11.645.56c.048-.07.138-.092.201-.048.062.043.075.135.026.205l-.252 1.181c.73.602 1.633 1.745 1.748 3.08h-8.77c.115-1.335 1.018-2.478 2.306-3.08zm3.99 1.861a.486.486 0 0 0 .485-.487c0 .028-.217-.487-.485-.487s-.485.515-.485.487c0 .269.217.487.485.487zm-3.761 0a.487.487 0 0 0 .486-.487c0 .028-.218-.487-.486-.487s-.485.515-.485.487c0 .269.217.487.485.487zM3.39 11.526c-.896 0-.86.234-.86-1.005V6.592c0-.222-.036-1.005.86-1.005.193 0 .85.783.85 1.005v3.929c0 1.239-.657 1.005-.85 1.005z"/>
</svg>
