<?xml version="1.0" encoding="utf-8"?>
<!-- Generator: Adobe Illustrator 21.1.0, SVG Export Plug-In . SVG Version: 6.00 Build 0)  -->
<svg version="1.1" id="Layer_1" xmlns="http://www.w3.org/2000/svg" xmlns:xlink="http://www.w3.org/1999/xlink" x="0px" y="0px"
	 viewBox="0 0 18 18" style="enable-background:new 0 0 18 18;" xml:space="preserve">
<style type="text/css">
	.st0{fill:#FFFFFF;}
</style>
<path class="st0" d="M14.9,11.5c-0.5,0-1,0.2-1-1V6.6c0-0.2,0.4-1,1-1c0.5,0,1,0.8,1,1v3.9C15.9,11.8,15.5,11.5,14.9,11.5z
	 M12.6,13.6h-0.9v2.2c0,0.5-0.4,1-1,1c-0.5,0-1-0.5-1-1c0,0,0,0,0,0v-2.2H8.2v2.2c0,0.5-0.4,1-1,1c0,0,0,0,0,0c-0.5,0-1-0.5-1-1
	c0,0,0,0,0,0v-2.2H5.4c-0.4,0-0.8-0.3-0.8-0.8c0,0,0,0,0,0V5.6h8.8v7.2C13.4,13.2,13.4,13.6,12.6,13.6z M6.9,1.9l0-1.2
	C6.5,0.6,6.6,0.6,6.1,0.5c0.1,0,0.2,0,0.2,0l0.8,1.2C7.7,1.6,8.4,1.4,9,1.4c0.6,0,1.3,0.1,1.8,0.3l0.8-1.2c0-0.1,0.1-0.1,0.2,0
	c0.1,0,0.1,0.1,0,0.2l-0.2,1.2c0.7,0.6,1.6,1.7,1.7,3.1H4.6C4.7,3.6,5.6,2.5,6.9,1.9z M10.9,3.8c0.3,0,0.5-0.2,0.5-0.5c0,0,0,0,0,0
	c0,0-0.2-0.5-0.5-0.5s-0.5,0.5-0.5,0.5C10.4,3.5,10.6,3.8,10.9,3.8z M7.1,3.8c0.3,0,0.5-0.2,0.5-0.5c0,0-0.2-0.5-0.5-0.5
	c-0.3,0-0.5,0.5-0.5,0.5C6.6,3.5,6.9,3.8,7.1,3.8z M3.4,11.5c-0.9,0-0.9,0.2-0.9-1V6.6c0-0.2,0-1,0.9-1c0.2,0,0.9,0.8,0.9,1v3.9
	C4.3,11.8,3.6,11.5,3.4,11.5z"/>
</svg>
