<svg xmlns="http://www.w3.org/2000/svg" width="18" height="18">
    <path fill-rule="evenodd" fill="#243036" d="M13.93 9.776c-.817 2.332 1.214 3.109 1.237 3.117-.018.055-.327 1.106-.207 2.947-1.507.36-2.176 1.115-3.228 1.137-1.037.016-1.371-.615-2.554-.615-1.184 0-1.553.593-2.534.631-1.016.307-1.789-1.013-2.438-1.543-1.331-2.315-2.343-5.807-.98-8.162.675-1.168 1.883-1.911 3.198-1.928.997-.02 1.941.91 2.552.91.608 0 1.756-1.071 2.961-.95.501.022 1.917.206 2.824 1.53-.07.043-1.021.978-.831 2.926zM8.852 5.148c-.119-.882.321-1.805.822-2.384.557-.648 1.499-1.135 2.275-1.165.551.901-.263 1.807-.804 2.961-.539.148-1.427.653-2.293.588z"/>
</svg>
