<svg xmlns="http://www.w3.org/2000/svg" width="18" height="18">
    <path fill-rule="evenodd" fill="#243036" d="M13.92 9.776c-.807 2.332 1.224 3.109 1.247 3.117-.018.055-.327 1.105-.207 2.947-1.508.35-2.176 1.114-3.229 1.137-1.036.015-1.37-.615-2.553-.615-1.184 0-1.553.592-2.535.63-1.015.308-1.788-1.013-2.437-1.542-1.332-2.315-2.344-5.807-.981-8.163.676-1.167 1.884-1.91 3.199-1.928.997-.02 1.94.911 2.551.911.609 0 1.757-1.071 2.962-.95.501.022 1.917.206 2.824 1.529-.07.044-1.021.979-.841 2.927zM8.852 5.147c-.12-.881.32-1.805.822-2.383.557-.648 1.498-1.136 2.275-1.165.551.901-.263 1.807-.804 2.961-.539.147-1.427.653-2.293.587z"/>
</svg>
