<svg xmlns="http://www.w3.org/2000/svg" width="44" height="44">
    <path fill-rule="evenodd" fill="#EBEEF4" d="M21.998 0c12.151 0 22.001 9.849 22.001 21.999 0 12.151-9.85 22-22.001 22C9.848 43.999.1 34.15.1 21.999.1 9.849 9.848 0 21.998 0z"/>
    <path fill-rule="evenodd" fill="#333" d="M27.353 21.919c.026 3.029 2.827 4.038 3.117 4.048-.23.423-.848 1.436-1.815 2.846-.834 1.467-1.702 2.429-3.07 2.458-1.345.02-1.78-.798-3.315-.798-1.537 0-2.018.769-3.292.818-1.32.049-2.324-1.315-3.166-2.529-.972-2.481-3.044-7.015-1.273-10.074.878-1.516 2.447-2.481 4.155-2.504 1.294-.026 2.519 1.326 3.906 1.326.197 0 1.688-1.535 3.252-1.378.651.029 2.489.268 3.668 1.987-.091.056-2.19 1.271-2.167 3.8zm-5.507-6.011c-.155-1.145.417-2.344 1.068-3.095.722-.842 1.945-1.475 2.954-1.513.131 1.171-.342 2.347-1.045 3.191-.699.846-1.853 1.502-2.977 1.417z"/>
</svg>
