<?xml version="1.0" encoding="utf-8"?>
<!-- Generator: Adobe Illustrator 21.1.0, SVG Export Plug-In . SVG Version: 6.00 Build 0)  -->
<svg version="1.1" id="Layer_1" xmlns="http://www.w3.org/2000/svg" xmlns:xlink="http://www.w3.org/1999/xlink" x="0px" y="0px"
	 viewBox="0 0 18 18" style="enable-background:new 0 0 18 18;" xml:space="preserve">
<style type="text/css">
	.st0{fill:#FFFFFF;}
</style>
<path class="st0" d="M13.9,9.8c-0.8,2.3,1.2,3.1,1.2,3.1c0,0.1-0.3,1.1-0.2,2.9c-1.5,0.4-2.2,1.1-3.2,1.1c-1,0-1.4-0.6-2.6-0.6
	C8,16.4,7.6,17,6.6,17c-1,0.3-1.8-1-2.4-1.5c-1.3-2.3-2.3-5.8-1-8.2c0.7-1.2,1.9-1.9,3.2-1.9c1,0,1.9,0.9,2.6,0.9
	c0.6,0,1.8-1.1,3-0.9c0.5,0,1.9,0.2,2.8,1.5C14.7,6.9,13.7,7.8,13.9,9.8z M8.9,5.1C8.7,4.3,9.2,3.3,9.7,2.8c0.6-0.6,1.5-1.1,2.3-1.2
	c0.6,0.9-0.3,1.8-0.8,3C10.6,4.7,9.7,5.2,8.9,5.1z"/>
</svg>
