<?xml version="1.0" encoding="utf-8"?>
<!-- Generator: Adobe Illustrator 21.1.0, SVG Export Plug-In . SVG Version: 6.00 Build 0)  -->
<svg version="1.1" id="Layer_1" xmlns="http://www.w3.org/2000/svg" xmlns:xlink="http://www.w3.org/1999/xlink" x="0px" y="0px"
	 viewBox="0 0 44 44" style="enable-background:new 0 0 44 44;" xml:space="preserve">
<style type="text/css">
	.st0{fill:#0BB783;}
	.st1{fill:#F5F7F8;}
</style>
<path class="st0" d="M22,1.1c11.6,0,20.9,9.3,20.9,20.9S33.6,42.9,22,42.9S1.2,33.5,1.2,22S10.4,1.1,22,1.1z"/>
<path class="st1" d="M27.5,18.4h-2.9V16c0-0.8-0.3-1.4-0.8-1.9c-0.9-0.9-2.1-0.9-2.2-0.9h0.2l-3.7,6.2h-1.6c-1.2,0-2.3,1-2.3,2.3
	v4.8c0,1.2,1,2.3,2.3,2.3h10.1c1.2,0,2.3-1,2.3-2.3l0,0l0.9-5.8C29.8,19.4,28.7,18.4,27.5,18.4z M15.7,26.6v-4.8
	c0-0.5,0.4-0.8,0.8-0.8h1.3v6.4h-1.3C16.1,27.3,15.7,26.9,15.7,26.6z M27.3,26.3L27.3,26.3v0.2c0,0.5-0.4,0.8-0.8,0.8h-7.2v-6.8
	v-0.1l3.1-5.5c-0.2,0.1,0.1,0.2,0.3,0.4c0.2,0.4,0.9,0.5,0.9,0.9v3.3c0,0.3-0.4,0.6,0,0.7l0,0h3.8c0.4,0,0.8,0.3,0.8,0.7
	C28.3,20.7,27.3,26.3,27.3,26.3z"/>
</svg>
