<svg xmlns="http://www.w3.org/2000/svg" width="20" height="20">
    <path fill-rule="evenodd" fill="#999" d="M7.719 7.18 6.735 8.3l1.969 1.671-1.969 1.969.984.984 1.969-1.968 1.969 1.968.985-.984-1.969-1.969L12.642 8.3l-.985-1.12-1.969 1.807L7.719 7.18zM4.767 5.5c-2.267 2.266-2.267 6.676 0 9.393a6.962 6.962 0 0 0 9.843 0c2.717-2.717 2.717-7.127 0-9.393-2.717-3.167-7.126-3.167-9.843 0zm8.859 8.409c-2.17 2.881-5.705 2.881-7.875 0-2.171-2.171-2.171-5.704 0-7.569 2.17-2.477 5.705-2.477 7.875 0 2.17 1.865 2.17 5.398 0 7.569z"/>
</svg>
