<svg xmlns="http://www.w3.org/2000/svg" width="18" height="18">
    <path fill-rule="evenodd" fill="#72767B" d="M14.867 16.19H8.678c-1.061 0-1.922-1.032-1.922-1.23V7.902c0-1.062.861-1.923 1.922-1.923h6.189c1.061 0 1.922.861 1.922 1.923v7.058c0 .198-.861 1.23-1.922 1.23zm.664-8.288a.665.665 0 0 0-.664-.664H8.678c-.366 0-.538.298-.538.664v7.058c0-.498.172-.2.538-.2h6.189c.366 0 .664-.298.664.2V7.902zm-3.919-2.987a.629.629 0 0 1-.629-.629v-.383a.664.664 0 0 0-.664-.665H4.13a.665.665 0 0 0-.664.665v7.057c0-.497.298-.199.664-.199h.848c.348 0 .629.669.629.629 0 .348-.281.81-.629.81H4.13c-.44 0-1.922-1.042-1.922-1.24V3.903c0-1.063 1.482-1.924 1.922-1.924h6.189c1.062 0 1.923.861 1.923 1.924v.383a.63.63 0 0 1-.63.629z"/>
</svg>
