<svg xmlns="http://www.w3.org/2000/svg" width="20" height="20">
    <path fill-rule="evenodd" opacity=".741" fill="#D32F2F" d="M15.772 6.845h-.642v9.114c0 .647-.642 1.172-1.288 1.172H6.149a1.172 1.172 0 0 1-1.171-1.172V6.845h-.784a.678.678 0 1 1 0-1.357h2.73v-.756c0-1.047.847-1.896 1.893-1.896h2.358c1.046 0 2.505.849 2.505 1.896v.756h2.092a.678.678 0 0 1 0 1.357zm-4.059-2.006c0-.356-.29-.645-.023-.645H8.924a.645.645 0 0 0-.645.645v.649h3.434v-.649zm1.944 2.006H6.334v8.929h7.323V6.845zM9.983 9.651c.375 0 .677.304.677.679v3.208a.677.677 0 1 1-1.355 0V10.33c0-.375.303-.679.678-.679z"/>
</svg>
