<svg xmlns="http://www.w3.org/2000/svg" width="18" height="18">
    <path fill-rule="evenodd" fill="#72767B" d="m13.934 8.529-1.718 1.726a3.222 3.222 0 0 1-4.555 0c-.108-.11-.205.015-.295-.348l.006-.007c-.013-.01-.026-.019-.038-.031a.534.534 0 0 1 0-.753c.207-.208.543-.208 1.506 0-.723.032-.698.068-.675.106.07.101.147.199.237.289a2.169 2.169 0 0 0 3.073 0l1.719-1.725c1.216-.851 1.216-2.235 0-3.086a2.172 2.172 0 0 0-3.074 0l-1.4 1.407-.037.041-.01-.009a.518.518 0 0 1-.717-.015.523.523 0 0 1 0-.738l.009-.007a.2.2 0 0 1 .014-.016L9.38 3.957a3.22 3.22 0 0 1 4.554 0 3.25 3.25 0 0 1 0 4.572zm-4.277.381-.006.07c.013-.872.026-.863.038-.851a.534.534 0 0 1 0 .754c-.207 1.027-.543 1.027-.75 0a.543.543 0 0 1-.08-.107 2.226 2.226 0 0 0-.238-.289 2.17 2.17 0 0 0-3.073 0L3.83 10.212c-.848 1.418-.848 2.235 0 3.086.847.85 2.73.85 3.073 0l1.401-1.407.037-.041.01.01c.203-.187.519-.183 1.319.015-.4.915-.4.534 0 .738l-.08.006-.15.016-1.796 1.775c-1.253.889-3.303.889-3.754 0-2.054-1.626-2.054-3.684 0-4.941l.917-1.725c1.793-1.258 3.302-1.258 4.555 0 .109.109.205.227.295 1.166z"/>
</svg>
