<svg xmlns="http://www.w3.org/2000/svg" width="16" height="15">
    <path fill-rule="evenodd" fill="#33c99a" d="M15.048 14.76a.744.744 0 0 1-1.044 0l-2.266-2.241a6.371 6.371 0 0 1-3.915 1.335c-3.104 0-5.684-2.201-6.242-5.111l1.542.051a4.865 4.865 0 0 0 4.7 3.599c2.691 0 4.881-2.166 4.881-4.828 0-2.662-2.19-4.828-4.881-4.828-.318 0-.623.047-.923.109l-.494-1.394a6.297 6.297 0 0 1 1.417-.176c3.512 0 6.357 2.816 6.357 6.289a6.22 6.22 0 0 1-1.392 3.927l2.26 2.235a.726.726 0 0 1 0 1.033zM9.981 5.652l1.008.975-4.142 4.009-2.535-2.454 1.007-.975 1.528 1.479 3.134-3.034zM6.048 7.573l-.706-1.796H2.828l-.704 1.796H.591L3.448.285h1.314l2.857 7.288H6.048zM4.086 2.359l-.771 2.059h1.541l-.77-2.059z"/>
</svg>
