<svg xmlns="http://www.w3.org/2000/svg" width="16" height="16">
    <path fill-rule="evenodd" fill="#72767B" d="M14.078 1.886h-1.345A1.66 1.66 0 0 0 11.176.799H4.804a1.66 1.66 0 0 0-1.557 1.087H1.919A1.66 1.66 0 0 0 .258 3.541v1.271c0 2.148 1.415 3.969 3.361 4.596a4.86 4.86 0 0 0 3.65 2.692v1.662H4.7a.72.72 0 1 0 0 1.437h6.58a.72.72 0 1 0 0-1.437H8.711V12.1a4.855 4.855 0 0 0 3.646-2.685c1.958-.621 3.381-2.448 3.381-4.603V3.541a1.66 1.66 0 0 0-1.66-1.655zM1.7 4.812V3.541c0-.12.098-.218.219-.218h1.225v3.999c0 .088.003.176.008.263A3.38 3.38 0 0 1 1.7 4.812zm9.695 2.51a3.404 3.404 0 0 1-3.405 3.395 3.404 3.404 0 0 1-3.405-3.395V2.454a.22.22 0 0 1 .219-.219h6.372a.22.22 0 0 1 .219.219v4.868zm2.902-2.51a3.383 3.383 0 0 1-1.469 2.785 5.02 5.02 0 0 0 .008-.275V3.323h1.242c.121 0 .219.098.219.218v1.271z"/>
</svg>
