<svg xmlns="http://www.w3.org/2000/svg" width="16" height="14">
    <path fill-rule="evenodd" fill="#72767B" d="M14.028 7.753H7.1c.071 0-.607-.678-.607-1.507v-4.52c0-.829.678-1.507.607-1.507h6.928c.829 0 1.507.678 1.507 1.507v4.52c0 .829-.678 1.507-1.507 1.507zm0-4.52H7.1v3.013h6.928V3.233zm-2.261 6.781a.755.755 0 0 1-.753.753H4.986A1.511 1.511 0 0 1 3.479 9.26V4.74c0-.415.339-.754.754-.754.414 0 .753.339.753.754v4.52h6.028c.414 0 .753.339.753.754zm-3.014 3.014c0 .414-.339.753-1.653.753H1.972a1.511 1.511 0 0 1-1.507-1.507V7.753c0-.414.339-1.653.754-1.653.414 0 .753 1.239.753 1.653v4.521H7.1c1.314 0 1.653.339 1.653.754z"/>
</svg>
