<svg xmlns="http://www.w3.org/2000/svg" width="20" height="20">
    <path fill-rule="evenodd" fill="#72767B" d="m17.385 4.762-7.066 6.632a.91.91 0 0 1-.645.261.947.947 0 0 1-.679-.284L7.212 9.555a.727.727 0 0 1 .006-1.023.714.714 0 0 1 1.015.005l1.45 1.613 6.724-6.447a.713.713 0 0 1 1.014.037c.27.58.254.75-.036 1.022zm-5.173-.769a6.053 6.053 0 0 0-2.779-.672c-3.534 0-5.903 3.022-6.13 6.638a6.12 6.12 0 0 0 5.691 5.737c3.586.252 6.584-1.916 6.584-6.18l-.001-.082c-.005.176.265-.69.631-.734.421-.05 1.292.275.912.702.01.038.01.076.01.114 0 4.221-3.511 7.642-7.697 7.642-4.188 0-7.583-3.424-7.58-7.647.003-4.154 3.373-7.59 7.493-7.637a7.487 7.487 0 0 1 3.528.833c.377.194.5.679.27 1.037-.201.826-.603.418-.932.249z"/>
</svg>
