<?xml version="1.0" encoding="utf-8"?>
<!-- Generator: Adobe Illustrator 21.1.0, SVG Export Plug-In . SVG Version: 6.00 Build 0)  -->
<svg version="1.1" id="Layer_1" xmlns="http://www.w3.org/2000/svg" xmlns:xlink="http://www.w3.org/1999/xlink" x="0px" y="0px"
	 viewBox="0 0 48 48" style="enable-background:new 0 0 48 48;" xml:space="preserve">
<style type="text/css">
	.st0{fill:#4E5459;}
</style>
<path class="st0" d="M46.2,40c0,3.4-2.8,6.2-6.2,6.2H8c-3.4,0-6.2-2.8-6.2-6.2V8c0-3.4,2.8-6.2,6.2-6.2h32c3.4,0,6.2,2.8,6.2,6.2V40
	z"/>
<path d="M9.2,17.5h6.2v20.9H9.2V17.5z M12.3,15L12.3,15c-1.9,0-3.1-1.4-3.1-3.1c0-1.7,1.2-3.1,3.1-3.1c1.9,0,3,1.3,3.1,3.1
	C15.4,13.7,14.2,15,12.3,15z M38.8,38.4h-6.2V27.2c0-2.7-1.5-4.6-3.9-4.6c-1.8,0-2.8,1.2-3.3,2.5c-0.2,0.4-0.1,1.6-0.1,2.2v11.1
	h-6.2V17.5h6.2v3.2c0.9-1.4,2.3-3.2,5.8-3.2c4.4,0,7.7,2.8,7.7,9L38.8,38.4z"/>
</svg>
