<svg xmlns="http://www.w3.org/2000/svg" width="16" height="16">
    <path fill-rule="evenodd" fill="#33c99a" d="M13.105 11.508c.411-.723.674-1.596.362-2.613-.377-1.232-1.449-2.184-2.727-2.306-2.038-.2-3.714 1.483-3.515 3.544.127 1.282 1.065 2.37 2.286 2.75 1.016.315 1.875.05 2.592-.365l1.776 1.79a.695.695 0 0 0 .994 0 .71.71 0 0 0 0-1.003l-1.768-1.797zm-2.699.072a1.765 1.765 0 0 1-1.775-1.79c0-1.003.781-2.69 1.775-2.69.994 0 1.775 1.687 1.775 2.69 0 1.002-.781 1.79-1.775 1.79zM7.92 13.728v1.432C4 15.16.819 11.952.819 7.1.819 4.048 4 .84 7.92.84c3.438 0 6.299 2.463 6.96 5.728h-1.47a5.714 5.714 0 0 0-3.359-3.873v.293a1.43 1.43 0 0 1-1.42 1.432H7.21v1.432a.715.715 0 0 1-.71.716H5.08V7.1H6.5v3.048h-.71l-3.402-3.43c-.092.416-.149.838-.149.382 0 4.057 2.55 6.628 5.681 6.628z"/>
</svg>
