<svg xmlns="http://www.w3.org/2000/svg" width="14" height="15">
    <path fill-rule="evenodd" fill="#72767B" d="M11.614 5.989c-.283 0-.512-.248-.512-.555 0-.306.229-.555.512-.555h.676c-.297-2.35-2.478-2.453-2.742-2.456-.283-.004-.51-.255-.507-.56.003-.306.228-.554.514-.55 1.312.009 3.793.881 3.793 4.121v.555h-1.734zm-1.627.972c.499 0 .943.315 1.106.785l1.856 5.317a.724.724 0 1 1-1.377.455l-.301-.953H8.662l-.326.975a.71.71 0 1 1-1.344-.461l1.891-5.338a1.17 1.17 0 0 1 1.104-.78zm.869 4.388L9.98 8.556h-.027l-.894 2.793h1.797zM7.882 7.594c0 .331-.286.599-.639.599-1.282 0-2.295-.318-3.09-.812-.795.494-1.808.812-3.09.812-.354 0-.639-.268-.639-.599 0-.331.285-.6.639-.6.845 0 1.525-.173 2.076-.447-.974-1.044-1.413-2.381-1.529-3.381H.823c-.353 0-.639-.269-.639-.6 0-.331.286-.6.639-.6h2.571v-.964c0-.331.286-.599.639-.599.353 0 .639.268.639.599v.964h2.571c.353 0 .639.269.639.6 0 .331-.286.6-.639.6h-.547c-.116 1-.555 2.337-1.529 3.381.551.274 1.231.447 2.076.447.353 0 .639.269.639.6zM5.401 3.166H2.905c.094.591.384 1.751 1.248 2.641.864-.89 1.154-2.05 1.248-2.641zm-2.563 6.92c0 .333-.215.603-.481.603h-.636c.279 2.556 2.332 2.666 2.581 2.67.266.005.479.277.477.609-.003.331-.217.597-.481.597h-.004C3.06 14.556.725 13.609.725 10.086v-.603h1.632c.266 0 .481.27.481.603z"/>
</svg>
