<svg xmlns="http://www.w3.org/2000/svg" width="20" height="20">
    <path fill-rule="evenodd" fill="#72767B" d="M18.839 7.284c0-1.505-1.228-2.725-1.869-2.725-2.387 0-3.614 1.22-3.614 2.725 0 1.257.856 2.312 2.02 2.627v1.794a.995.995 0 0 1-.997.991H11.24V5.895a2.726 2.726 0 0 0 2.019-2.626c0-1.505-.939-2.725-2.742-2.725-1.117 0-2.741 1.22-2.741 2.725 0 1.256.856 2.311 2.02 2.626v9.454H6.558c.342 0-.996-.444-.996-.99V12.25a2.727 2.727 0 0 0 2.02-2.626A2.733 2.733 0 0 0 4.84 6.898c-1.514 0-1.85 1.22-1.85 2.726 0 1.256-.034 2.311 1.129 2.626v2.109a2.435 2.435 0 0 0 2.439 2.425h3.238v1.924a.72.72 0 0 0 .721.717.72.72 0 0 0 .723-.717v-4.577h3.139c1.345 0 2.44-.701 2.44-2.426V9.911a2.727 2.727 0 0 0 2.02-2.627zM3.542 9.624c0-.712.583-1.291 1.298-1.291.717 0 1.299.579 1.299 1.291 0 .711-.582 1.29-1.299 1.29a1.296 1.296 0 0 1-1.298-1.29zm5.677-6.355c0-.712.583-1.291 1.298-1.291.716 0 1.298.579 1.298 1.291 0 .711-.582 1.29-1.298 1.29a1.296 1.296 0 0 1-1.298-1.29zm7.751 5.306c-1.589 0-2.171-.579-2.171-1.291 0-.711.582-1.29 2.171-1.29-.157 0 .425.579.425 1.29 0 .712-.582 1.291-.425 1.291z"/>
</svg>
