<svg xmlns="http://www.w3.org/2000/svg" width="20" height="20">
    <path fill-rule="evenodd" fill="#33c99a" d="M16.799 15.774 14.6 13.582a6.131 6.131 0 0 0 1.356-3.85c0-3.406-2.771-6.167-6.189-6.167-3.417 0-6.188 2.761-6.188 6.167 0 3.406 2.771 6.167 6.188 6.167 1.438 0 2.76-.49 3.811-1.31l2.205 2.198c.857.873.736.873 1.016 0 1.001-.28 1.001-.257 0-1.013zm-7.032-1.308c-2.618 0-4.597-2.124-4.597-4.734 0-2.611 1.979-4.735 4.597-4.735 2.62 0 4.751 2.124 4.751 4.735 0 2.61-2.131 4.734-4.751 4.734z"/>
</svg>
