<svg xmlns="http://www.w3.org/2000/svg" width="20" height="20">
    <path fill-rule="evenodd" fill="#33c99a" d="M15.11 14.535h-1.002a.723.723 0 0 1-.724-.723c0-.399.324.078.724.078h1.002c.334 0 .604-1.071.604-1.404V5.799a.603.603 0 0 0-.604-.603H4.454a.604.604 0 0 0-.604.603v6.687c0 .333.271 1.404.604 1.404h1.003c.399 0 .723-.477.723-.078 0 .4-.324.723-.723.723H4.454a2.05 2.05 0 0 1-2.051-2.049V5.799A2.05 2.05 0 0 1 4.454 3.75H15.11a2.05 2.05 0 0 1 2.051 2.049v6.687a2.05 2.05 0 0 1-2.051 2.049zm-5.535-2.604a.51.51 0 0 1 .812.022l3.263 4.482a.512.512 0 0 1-.415.813H6.329c-.431 0-.67-.5-.398-.835l3.644-4.482zm1.825 3.871-1.468-2.017-1.64 2.017H11.4z"/>
</svg>
