<svg xmlns="http://www.w3.org/2000/svg" width="16" height="16">
    <path fill-rule="evenodd" fill="#33c99a" d="M7.1 15.901c-.18 0-1.2-.208-2.162-.623A8.015 8.015 0 0 1 2.42 13.58a8.028 8.028 0 0 1-1.699-2.519C.307 10.1.099 9.08.099 7.1c0-.219.211-1.26.632-2.221A7.879 7.879 0 0 1 2.46 2.371 7.95 7.95 0 0 1 5.027.702 8.227 8.227 0 0 1 8.178.099c1.04 0 2.028.175 2.962.524a7.831 7.831 0 0 1 2.459 1.452 6.94 6.94 0 0 1 1.679 2.202c.415.849.623 1.781.623 2.795 0 1.422-.415 2.544-1.245 3.367-.829.823-1.929 1.235-3.298 1.235H9.876a.807.807 0 0 0-.612.276.884.884 0 0 0-.257.613c0 .355.096.658.287.908.191.25.286.54.286.869 0 .501-.138.886-.415 1.156-.276.27-.665.405-2.065.405zM3.398 8.514a.945.945 0 0 0 .691-.297.944.944 0 0 0 .296-.691.944.944 0 0 0-.296-.691.945.945 0 0 0-.691-.297.945.945 0 0 0-.691.297.945.945 0 0 0-.297.691c0 .263.099.494.297.691a.945.945 0 0 0 .691.297zm2.489-3.358a.95.95 0 0 0 .691-.296.952.952 0 0 0 0-1.383.946.946 0 0 0-.691-.296.947.947 0 0 0-.692.296.952.952 0 0 0 0 1.383.95.95 0 0 0 .692.296zm4.226 0a.95.95 0 0 0 .692-.296.952.952 0 0 0 0-1.383.947.947 0 0 0-.692-.296.946.946 0 0 0-.691.296.952.952 0 0 0 0 1.383.95.95 0 0 0 .691.296zm2.588 3.358a.945.945 0 0 0 .691-.297.944.944 0 0 0 .296-.691.944.944 0 0 0-.296-.691.945.945 0 0 0-.691-.297.944.944 0 0 0-.691.297.945.945 0 0 0-.297.691c0 .263.099.494.297.691a.944.944 0 0 0 .691.297zM7.1 14.716c1.045 0 1.147-.03 1.206-.089.059-.06.089-.155.089-.287 0-.184-.095-.355-.286-.513-.191-.158-.287-.507-.287-1.047 0-.606.198-1.139.593-1.6a1.89 1.89 0 0 1 1.501-.691h1.442c1 0 1.81-.293 2.429-.879.619-.586.928-1.432.928-2.538 0-1.738-.658-3.138-1.975-4.198-1.316-1.06-2.837-1.59-4.562-1.59-1.923 0-3.552.649-4.889 1.946C1.953 4.527 1.284 6.117 1.284 7.1c0 2.757.656 4.34 1.966 5.65 1.31 1.31 2.893 1.966 3.85 1.966z"/>
</svg>
