<svg xmlns="http://www.w3.org/2000/svg" width="20" height="20">
    <path fill-rule="evenodd" fill="#33c99a" d="M14.613 8.989c-.282 0-.512-.249-.512-.555 0-.306.23-.555.512-.555h.677c-.297-2.351-2.478-2.453-2.743-2.457-.282-.003-.167-.254-.137-.559.02-.306-.141-.554.145-.55 1.312.008 3.793.88 3.793 4.121v.555h-1.735zm-1.626.972c.498 0 .942.315 1.953.784l1.009 5.875c.164-.087-.186.62-.685.62-.317 0-.597-.421-.693-.722l-.3-.953h-2.609l-.326.974c-.096.29-.368.701-.674.701-.49 0-.833-.7-.67-.45l1.89-6.05c.598-.467.608-.779 1.105-.779zm.869 4.387-.876-2.793h-.027l-.363 2.793h1.266zm-2.974-3.755c0 .332-.286.6-.639.6-1.283 0-2.295-.318-3.09-.812-.795.494-1.808.812-2.523.812-.921 0-1.207-.268-1.207-.6 0-.331.286-.599 1.207-.599.278 0 .958-.174 1.509-.448-.974-1.044-1.413-2.38-1.529-3.381h-.788c-.352 0-.638-.268-.638-.6 0-.331.286-.599.638-.599h2.571V4.2c0-.529.287-.798.937-.798.056 0 .342.269.342.798v.766h2.571c.353 0 .639.268.639.599 0 .332-.286.6-.639.6h-.547c-.117 1.001-.556 2.337-1.53 3.381.552.274 1.232.448 2.077.448.353 0 .639.268.639.599zM8.401 6.165H5.904c.095.592.385 1.752 1.249 2.642 1.007-.89 1.154-2.05 1.248-2.642zM5.838 13.85c0-.432-.215-.162-.481-.162H4.72c.28 2.556 2.8 2.667 2.581 2.671.266.004.48.276.478.609-.003.33-.217.597-.482.597h-.003c-.704-.009-3.569-.957-3.569-3.715v-1.368h1.632c.266 0 .481.271.481 1.368z"/>
</svg>
