<svg xmlns="http://www.w3.org/2000/svg" width="28" height="28">
    <path fill-rule="evenodd" fill="#4E5459" d="M14.499 26.124C8.79 26.124 2.875 20.92 2.875 14.5c0-5.71 5.915-11.625 11.624-11.625 6.421 0 11.625 5.915 11.625 11.625 0 6.42-5.204 11.624-11.625 11.624zM18.813 8.36S15.875 9.564 15.8 9.941l-9.569 3.614c-1.545.602-.641 1.166-.641 1.166s1.319.452 2.8.791c.779.339 1.382-.038 1.382-.038l6.058-3.576c1.137-1.28.685-.226.8.226-.8.979-3.166 2.522-4.523 3.764-.602.527-.301.979.593 2.042.79-.009 3.024 1.685 3.175 1.798.755.151 1.243.828 1.883.678.641-.151.716-1.017.716-1.017l.942-5.91c.301-1.995.764-3.839 1.144-4.366-.391-1.28-1.747-.753-1.747-.753z"/>
</svg>
