<svg xmlns="http://www.w3.org/2000/svg" width="20" height="20">
    <path fill-rule="evenodd" fill="#72767B" d="M10.497 17.97c-4.119 0-7.227-3.351-7.227-7.47 0-4.12 3.108-7.21 7.227-7.21s7.47 3.09 7.47 7.21c0 4.119-3.351 7.47-7.47 7.47zm0-13.503A6.04 6.04 0 0 0 4.465 10.5a6.039 6.039 0 0 0 6.032 6.032 6.039 6.039 0 0 0 6.032-6.032 6.04 6.04 0 0 0-6.032-6.033zm1.956 6.298-1.237-1.237v4.212c0-.269-.322.053-.719.053-.397 0-.719-.322-.719-.053V9.571l-1.371 1.37a.718.718 0 1 1-1.016-1.016l2.464-2.464c.004-.005.01-.007.013-.011.011-.019.019-.039.031-.057a.71.71 0 0 1 .089-.108v-.001c.232-.034.602-.063.992-.09-.863-.012-.845-.02-.825-.03.022-.012.043-.026.067-.036.024-.01.049-.015.073-.023.021.885.04.815.061.765.046-.09.093-.14.141-.14.047 0 .094.05.141.14.021.05.04-.77.061-.764.024.007.049.012.073.022.025.01.046.024.07.037.017.01.036.018.053.029.04.027.077.057.705.09l1.869 2.464c.282.542.282.736 0 1.017-.28.685-.735.685-1.016 0z"/>
</svg>
