<svg xmlns="http://www.w3.org/2000/svg" width="20" height="20">
    <path fill-rule="evenodd" fill="#72767B" d="M10.497 17.969c-4.119 0-7.237-3.351-7.237-7.47S6.378 3.29 10.497 3.29s7.47 3.09 7.47 7.209-3.351 7.47-7.47 7.47zm0-13.502a6.04 6.04 0 0 0-6.033 6.032 6.04 6.04 0 0 0 6.033 6.033 6.04 6.04 0 0 0 6.032-6.033 6.039 6.039 0 0 0-6.032-6.032zm1.103 9.247c-.628.034-.665.064-.704.091-.018.011-.037.019-.055.029-.023.013-.045.026-.069.037-.024.009-.049.015-.073.022-.02.006-.04.014-.061.018a.674.674 0 0 1-.282 0c-.021-.004-.04-.012-.06-.018-.025-.007-.05-.013-.074-.022-.024-.01-.046-.024-.068-.036-.018-.01-.038-.019.826-.031-.39-.026-.76-.056-.991-.089l-.001-.001a.718.718 0 0 1-.089-.109c-.012-.018-.02-.037-.031-.056l-.013-.011-2.464-1.798c-.281-.947-.281-1.402 0-1.17.281-.794.735-.794 1.017 0l1.37.858V7.924a.72.72 0 0 1 1.438 0v3.547l1.237-1.237a.719.719 0 1 1 1.017 1.017l-1.87 2.463z"/>
</svg>
