<svg xmlns="http://www.w3.org/2000/svg" width="16" height="20">
    <path fill-rule="evenodd" fill="#72767B" d="m14.008 14.053-.483-1.054-1.064-.479 1.064-.479.483-1.054.484 1.054 1.064.479-1.064.479-.484 1.054zm-4.239-.756-1.04-2.267L6.442 9.1l2.287-.13 1.04-2.267 1.04 2.267 2.288.13-2.288 1.93-1.04 2.267zm4.239-4.284-.483-1.054-1.064-.479 1.064-.479.483-1.054.484 1.054 1.064.479-1.064.479-.484 1.054zM1.715 19.24c-.35 0-.649-.123-.898-.37a1.21 1.21 0 0 1-.374-.89V2.02c0-.347.125-.643.374-.89s.548-.37.898-.37h9.326c.35 0 .649.123.898.37s.374.543.374.89v3.066h-1.272V3.91H1.715v12.18h9.326v-1.176h1.272v3.066c0 .346-.125.643-.374.89s-.548.37-.898.37H1.715zm0-1.89v.63h9.326v-.63H1.715zm0-14.7h9.326v-.63H1.715v.63zm0 0v-.63.63zm0 14.7v.63-.63z"/>
</svg>
