<svg xmlns="http://www.w3.org/2000/svg" width="15" height="15">
    <path fill-rule="evenodd" fill="#72767B" d="M7.497 14.97c-4.119 0-7.47-3.351-7.47-7.47S3.378.03 7.497.03s7.471 3.351 7.471 7.47-3.352 7.47-7.471 7.47zm0-13.503A6.04 6.04 0 0 0 1.464 7.5a6.04 6.04 0 0 0 6.033 6.032A6.04 6.04 0 0 0 13.53 7.5a6.04 6.04 0 0 0-6.033-6.033zm1.956 6.298L8.216 6.528v3.547a.72.72 0 0 1-1.438 0V6.571l-1.37 1.371a.719.719 0 1 1-1.017-1.017l2.464-2.464c.005-.004.01-.007.013-.011.011-.019.019-.038.032-.056a.656.656 0 0 1 .088-.109l.001-.001a.718.718 0 0 1 .109-.089c.018-.012.038-.021.056-.031.023-.012.044-.026.068-.035.024-.011.049-.016.074-.023.02-.006.04-.014.06-.018a.674.674 0 0 1 .282 0c.021.004.041.012.061.018.025.007.05.013.073.023.024.01.047.024.07.036.018.01.036.018.053.029.04.027.078.057.111.091l2.464 2.463a.719.719 0 1 1-1.017 1.017z"/>
</svg>
