<?xml version="1.0" encoding="utf-8"?>
<!-- Generator: Adobe Illustrator 21.1.0, SVG Export Plug-In . SVG Version: 6.00 Build 0)  -->
<svg version="1.1" id="Layer_1" xmlns="http://www.w3.org/2000/svg" xmlns:xlink="http://www.w3.org/1999/xlink" x="0px" y="0px"
	 viewBox="0 0 15 15" style="enable-background:new 0 0 15 15;" xml:space="preserve">
<style type="text/css">
	.st0{fill:#33c99a;}
</style>
<path class="st0" d="M12.1,10.5c0-0.3,0-0.2,0-0.1l0.5,0.5l-0.5,0.8l-0.7-0.2c-0.1,0.1-0.3,0.2-0.5,0.3l-0.1,0.7H9.9l-0.1-0.7
	c-0.2-0.1-0.3-0.2-0.5-0.3l-0.7,0.2l-0.5-0.8l0.5-0.5c0-0.1,0-0.2,0,0.1c0-0.5,0-0.6,0-0.7L8.1,9.3l0.5-0.8l0.7,0.2
	c0.1-0.1,0.3-0.2,0.5-0.3l0.1-0.7h0.9l0.1,0.7c0.2,0.1,0.3,0.2,0.5,0.3l0.7-0.2l0.5,0.8L12,9.8C12,9.9,12.1,10,12.1,10.5z M10.3,9.1
	c-0.5,0-0.9,0.4-0.9,1.3c0,0.1,0.4,0.5,0.9,0.5c0.5,0,0.9-0.4,0.9-0.5C11.3,9.6,10.8,9.1,10.3,9.1z M6.6,7.1C5.2,7.1,4,6,4,4.5
	C4,3,5.2,1.9,6.6,1.9c0,0,0,0,0,0c1.5,0,2.6,1.2,2.6,2.6c0,0,0,0,0,0C9.3,6,8.1,7.1,6.6,7.1z M6.6,3C5.8,3,5.1,3.7,5.1,4.5
	C5.1,5.3,5.8,6,6.6,6c0.8,0,1.5-0.7,1.5-1.5C8.1,3.7,7.5,3,6.6,3z M7.2,8.1c0.3,0,0.6,0.3,0.6,0.6c0,0.1,0,0.2-0.1,0.2l0,0
	C7.7,9.2,7.5,9.3,7.2,9.3H4.8c-0.7,0-1.2,0.5-1.2,1.2v1.4c0,0.3-0.3,0.6-0.6,0.6c0,0,0,0-0.1,0c-0.3,0-0.5-0.3-0.5-0.6v-1.4
	c0-1.3,1.1-2.4,2.4-2.4c0,0,0,0,0,0C4.8,8.1,7.2,8.1,7.2,8.1z"/>
</svg>
