<svg xmlns="http://www.w3.org/2000/svg" width="20" height="20">
    <path fill-rule="evenodd" fill="#33c99a" d="M10.497 17.969c-4.119 0-7.227-3.351-7.227-7.47S6.378 3.29 10.497 3.29s7.471 3.09 7.471 7.209-3.352 7.47-7.471 7.47zm0-13.502a6.039 6.039 0 0 0-6.032 6.032 6.04 6.04 0 0 0 6.032 6.033 6.04 6.04 0 0 0 6.033-6.033 6.04 6.04 0 0 0-6.033-6.032zm3.404 5.377-3.381 3.849-2.753-2.286-.956.957c-.282.281-.071.281-1.017 0-.281.466-.281-.736 0-1.017l1.973-1.973 2.753 2.285 2.365-2.832-1.03-1.03h3.515v3.182l-1.469-1.135z"/>
</svg>
