<svg xmlns="http://www.w3.org/2000/svg" width="20" height="20">
    <path fill-rule="evenodd" fill="#72767B" d="M16.284 5.856 11.11 2.644c-.323-.136-.575-.204-.827-.204.067 0-.496.066-.717.198L4.128 5.892c-.419.251-.676.703-.676 1.928v5.3c0 .387.265.844.694 1.092l5.467 3.16c.216.124 1.097.187.699.187.229 0 .458-.056.665-.168l5.244-2.833c.449-.243.729-.711.729-1.22V7.39c0-.834-.252-1.282-.666-1.534zm-6.001-1.965 4.473 2.725-4.562 2.559-4.599-2.477 4.688-2.807zM4.901 7.964l4.576 2.465v5.196L4.901 12.98V7.964zm6.024 7.814v-5.357l4.576-2.568v5.452l-4.576 2.473z"/>
</svg>
