<svg xmlns="http://www.w3.org/2000/svg" width="16" height="16">
    <path fill-rule="evenodd" fill="#33c99a" d="M13.197 5.487h-2.793V3.196c0-.732-.245-1.358-.709-1.81-.803-.783-1.96-.78-2.089-.777l-.436.01-2.88 5.838H2.796A2.177 2.177 0 0 0 .617 8.631v4.559c0 1.201.976 2.174 2.179 2.174h9.503a2.176 2.176 0 0 0 2.179-2.174l.899-5.529a2.177 2.177 0 0 0-2.18-2.174zM2.054 13.19V8.631c0-.408.333-.74.742-.74h1.248v6.039H2.796a.742.742 0 0 1-.742-.74zm11.005-.229-.018.114v.115c0 .408-.333.74-.742.74H5.482V7.445a.689.689 0 0 0-.014-.129l2.576-5.222c.222.051.475.147.651.322.182.18.271.436.271.78v2.992c0 .364.273.661.626.708v.025h3.605c.38 0 .695.287.737.655l-.875 5.385z"/>
</svg>
