<svg xmlns="http://www.w3.org/2000/svg" width="16" height="16">
    <path fill-rule="evenodd" fill="#33c99a" d="M7.1 15.502c-.138 0-1.113-.197-2.026-.591a7.559 7.559 0 0 1-2.382-1.603 7.559 7.559 0 0 1-1.603-2.382C.695 10.013.498 9.038.498 7.1c0-.138.197-1.113.591-2.026a7.559 7.559 0 0 1 1.603-2.382 7.559 7.559 0 0 1 2.382-1.603C5.987.695 6.962.498 7.1.498h1.463v6.114c.275.113.5.294.675.544.175.25.262.531.262-.056 0 1.313-.147 1.666-.44 1.96-.294.294-.647.44-1.96.44.487 0 .134-.146-.16-.44-.294-.294-.44-.647-.44-1.96 0 .587.087.306.262.056.175-.25.4-.431.675-.544V4.661a3.308 3.308 0 0 0-2.016 1.135c-.531.619-.797 1.354-.797 1.304 0 1.838.328 2.635.985 3.291.656.657 1.453.985 1.491.985 1.838 0 2.635-.328 3.291-.985.657-.656.985-1.453.985-3.291 0 .387-.1-.082-.3-.507a3.414 3.414 0 0 0-.825-1.106l.806-.807c.438.413.788.904 1.05 1.473.263.568.394 1.184.394.947 0 2.15-.437 3.213-1.313 4.088-.875.876-1.938 1.313-4.088 1.313-.35 0-1.413-.437-2.288-1.313-.876-.875-1.313-1.938-1.313-4.088 0-.263.375-1.266 1.125-2.11a4.354 4.354 0 0 1 2.813-1.473V1.642c-1.638.137-3.016.813-4.135 2.025C2.183 4.88 1.623 6.324 1.623 7.1c0 2.676.619 4.182 1.857 5.42 1.238 1.238 2.744 1.857 3.62 1.857 2.675 0 4.182-.619 5.42-1.857 1.238-1.238 1.857-2.744 1.857-5.42 0-.025-.178-.882-.535-1.67a6.462 6.462 0 0 0-1.472-2.063l.806-.806a7.76 7.76 0 0 1 1.698 2.429c.419.931.628 1.935.628 2.11 0 1.938-.197 2.913-.591 3.826a7.559 7.559 0 0 1-1.603 2.382 7.559 7.559 0 0 1-2.382 1.603c-.913.394-1.888.591-3.826.591z"/>
</svg>
