<svg xmlns="http://www.w3.org/2000/svg" width="15" height="15">
    <path fill-rule="evenodd" fill="#72767B" d="M12.695 2.142c.925 0 .666.298.666.664v2.192c0 .366.259.664-.666.664H2.302a.666.666 0 0 1-.667-.664V2.806c0-.366.299-.664.667-.664h10.393m0-1.188H2.302A1.855 1.855 0 0 0 .444 2.806v2.192c0 1.212.832 1.852 1.858 1.852h10.393c1.027 0 1.858-.64 1.858-1.852V2.806A1.854 1.854 0 0 0 12.695.954zm0 8.383c.925 0 .666.298.666.763v2.093c0 .366.259.664-.666.664H2.302a.666.666 0 0 1-.667-.664V10.1c0-.465.299-.763.667-.763h10.393m0-1.188H2.302c-1.026 0-1.858.829-1.858 1.951v2.093c0 1.022.832 2.257 1.858 2.257h10.393c1.027 0 1.858-1.235 1.858-2.257V10.1c0-1.122-.831-1.951-1.858-1.951zM3.56 3.173a.73.73 0 1 0-.002 1.46.73.73 0 0 0 .002-1.46zm0 7.195c-.404 0-.731.326-.731 1.602 0-.471.327-.145.731-.145.404 0 .731-.326.731.145 0-1.276-.327-1.602-.731-1.602z"/>
</svg>
