<svg xmlns="http://www.w3.org/2000/svg" width="28" height="28">
    <path fill-rule="evenodd" fill="#4E5459" d="M25.922 7.914c-.112.373-1.744.625-2.692.738.967.068 1.71-1.499 2.06-2.062-.905.006-1.908.396-2.976.606a4.688 4.688 0 0 0-7.987 4.275 13.301 13.301 0 0 1-9.66-4.897c-.404.692-.347 2.136-.347 2.356 0 1.627.539 3.061 1.797 3.902a4.679 4.679 0 0 1-2.123-.586v.058a4.69 4.69 0 0 0 3.76 4.597c-.394.899-.808.749-1.235.749-.302 0-.596-.29-.882-.669.596 1.862 2.327 3.217 4.513 3.255-1.739 1.257-3.76 2.007-5.956 2.007-.378 0-.751-.023-.434-.066 1.39 1.33 3.854 2.106 6.501 2.106 8.621 0 13.335-7.142 13.335-13.336 0-.204-.004-.406-.013-.607a9.533 9.533 0 0 0 2.339-2.426z"/>
</svg>
