<svg xmlns="http://www.w3.org/2000/svg" width="20" height="20">
    <path fill-rule="evenodd" fill="#33c99a" d="M10.174 2.309c-.398 0-.804.034-1.211.12-2.387.457-4.289 2.38-4.738 4.759-.416 2.25.414 4.319 1.919 5.655.372.328.57.785.57 1.267v1.992c0 1.398.779 1.724 1.73 1.724h.243c.302.517.847.862 1.487.862.64 0 1.194-.345 1.487-.862h.242c.952 0 1.73-.326 1.73-1.724V14.11c0-.474.19-.939.554-1.258a5.993 5.993 0 0 0 2.04-4.509c0-2.643-2.706-6.034-6.053-6.034zm2.01 12.339v1.287H8.163v-1.287h4.021zm1.045-2.88a3.076 3.076 0 0 0-.911 1.436h-1.421v-1.039l1.461-.395c.321-.932.386-1.384.147-1.11-.239-.913-.693-.979-1.014-.74l-1.329.989-1.304-.986c-.319-.241-.008-.179-1.015.697-.242-.24-.179.212.139 1.11l1.467.452v1.022H8.26c-.401-.552-.714-1.053-1.153-1.439-1.212-1.077-1.758-2.025-1.459-4.31a4.557 4.557 0 0 1 3.588-3.608l.014-.002.014-.003c.283-.06.58-.089.91-.089 2.539 0 4.605 2.059 4.605 4.59 0 1.31-.566 2.559-1.55 3.425z"/>
</svg>
