<svg xmlns="http://www.w3.org/2000/svg" width="28" height="28">
    <path fill-rule="evenodd" fill="#4E5459" d="M21.973 6.108a20.47 20.47 0 0 0-5.05-1.565.078.078 0 0 0-.081.039c-.218.387-.46.893-.629 1.29a18.92 18.92 0 0 0-5.672 0c-.169-.406-.42-.903-.639-1.29a.08.08 0 0 0-.081-.039c-1.331.305-3.468.839-5.05 1.565a.072.072 0 0 0-.033.029C1.521 10.937.64 15.619 1.72 20.243c.02.023.15.044-.615.058A20.596 20.596 0 0 0 7.3 23.43a.081.081 0 0 0 .087-.029c.477-.651.903-.761 1.267-2.059a.078.078 0 0 0-.043-.109 13.627 13.627 0 0 1-1.935-.922.08.08 0 0 1-.008-.132c.13.641.26-.198.862-.301.22-.018-.424-.022-.397-.01 4.06 1.851 8.456 1.851 12.469 0a.077.077 0 0 1 .081.009c.124.103.254.943.997.302-.567.034-.57.104-.07.132-1.167.361-1.809.666-2.485.921.685.016.485.067.705.11-.374 1.288.051 1.407.519 2.058a.08.08 0 0 0 .087.03 20.53 20.53 0 0 0 6.206-3.129.081.081 0 0 0 .032-.057c.517-5.346-.867-9.99-3.074-14.106-.601-.014-.613-.024-.627-.03zM9.261 17.428c-.881 0-1.951-1.122-1.951-2.498 0-1.377.88-2.498 1.951-2.498 1.252 0 2.249 1.131 2.23 2.498 0 1.376-.988 2.498-2.23 2.498zm8.244 0c-1.222 0-2.23-1.122-2.23-2.498 0-1.377.988-2.498 2.23-2.498 1.252 0 2.249 1.131 2.23 2.498 0 1.376-.978 2.498-2.23 2.498z"/>
</svg>
