<svg xmlns="http://www.w3.org/2000/svg" width="20" height="20">
    <path fill-rule="evenodd" fill="#72767B" d="M15.651 17.247a.723.723 0 0 1-.723-.723V14.7c0-.842-.682-1.525-1.524-1.525H7.286c-.842 0-1.525.683-1.525 1.525v1.824c0 .399-.323.723-.381.723-.741 0-1.065-.324-1.065-.723V14.7c0-1.11 1.33-2.972 2.971-2.972h6.118c2.036 0 2.97 1.862 2.97 2.972v1.824c0 .399.136.723-.723.723zm-5.307-6.848c-1.835 0-3.134-1.488-3.134-2.659 0-2.502 1.299-3.991 3.134-3.991 1.836 0 3.324 1.489 3.324 3.991 0 1.171-1.488 2.659-3.324 2.659zm0-5.203c-1.034 0-1.877 1.184-1.877 2.544 0 .37.843 1.213 1.877 1.213 1.036 0 1.878-.843 1.878-1.213 0-1.36-.842-2.544-1.878-2.544z"/>
</svg>
