<svg xmlns="http://www.w3.org/2000/svg" width="20" height="20">
    <path fill-rule="evenodd" fill="#72767B" d="m17.739 9.8-2.303 1.504a1.186 1.186 0 0 1-1.677-.026l-1.371-1.413a.723.723 0 0 1 1.035-1.008l1.194 2.003 2.12-2.47c.503-.629.744-.621 1.02.18.593-.225.513.233-.018 1.23zm-10.241.599c-1.834 0-3.32-1.489-3.32-2.659 0-2.503 1.486-3.991 3.32-3.991 1.833 0 3.319 1.488 3.319 3.991 0 1.17-1.486 2.659-3.319 2.659zm0-5.204c-1.034 0-1.876 1.185-1.876 2.545 0 .37.842 1.212 1.876 1.212 1.034 0 1.875-.842 1.875-1.212 0-1.36-.841-2.545-1.875-2.545zm3.055 6.533c1.639 0 2.967 1.852 2.967 2.972v1.824a.723.723 0 0 1-.722.723c-.399 0-.038-.324-.038-.723V14.7c0-.843-1.366-1.526-2.207-1.526h-6.11c-.842 0-1.523.683-1.523 1.526v1.824a.723.723 0 1 1-1.444 0V14.7c0-1.12 1.328-2.972 2.967-2.972h6.11z"/>
</svg>
