<svg xmlns="http://www.w3.org/2000/svg" width="15" height="15">
    <path fill-rule="evenodd" fill="#72767B" d="M7.497 14.97c-4.119 0-7.47-3.351-7.47-7.471 0-4.119 3.351-7.47 7.47-7.47s7.471 3.351 7.471 7.47c0 4.12-3.352 7.471-7.471 7.471zm0-13.503a6.04 6.04 0 0 0-6.033 6.032 6.04 6.04 0 0 0 6.033 6.033 6.04 6.04 0 0 0 6.033-6.033 6.04 6.04 0 0 0-6.033-6.032zm.509 9.248a.743.743 0 0 1-.11.09c-.018.011-.036.019-.055.029-.022.013-.045.027-.069.037-.023.01-.049.015-.073.022-.02.006-.04.014-.061.019a.74.74 0 0 1-.282 0c-.021-.005-.04-.012-.06-.018-.025-.007-.05-.013-.074-.023-.024-.01-.045-.023-.068-.036-.018-.01-.038-.018-.056-.03a.669.669 0 0 1-.109-.09l-.001-.001a.65.65 0 0 1-.088-.108c-.013-.018-.021-.038-.032-.057-.003-.004-.008-.006-.012-.01L4.391 8.074a.718.718 0 1 1 1.017-1.016l1.37 1.37V4.925a.72.72 0 0 1 1.438 0v3.547l1.237-1.238a.72.72 0 0 1 1.017 0 .72.72 0 0 1 0 1.017l-2.464 2.464z"/>
</svg>
