<svg xmlns="http://www.w3.org/2000/svg" width="20" height="20">
    <path fill-rule="evenodd" fill="#72767B" d="M16.3 15.167v1.245c0 .4-.619.724-1.015.724a.721.721 0 0 1-.718-.724V15.14c-.067-.271-.87-.816-.87-1.444 0-.9.723-1.036 1.615-1.036s1.614.136 1.614 1.036c0 .65-.378 1.209-.626 1.471zm-.988-3.557c-.396 0-.718-.874-.718-1.274V4.504c0-.4.322-.725.718-.725.396 0 .988.325.988.725v5.832c0 .4-.592 1.274-.988 1.274zM9.906 8.984c-.766 0-1.615-.729-1.615-1.629 0-.639.366-1.191.897-1.458V4.114c0-.4.321-.724.718-.724a.72.72 0 0 1 .717.724v1.783c.532.267.898.819.898 1.458 0 .9-.723 1.629-1.615 1.629zm-4.708 4.992c.012.314.02.844.02.162v2.32c0 .4-.322.725-.718.725a.721.721 0 0 1-.717-.725v-2.32c0 .682.007.152.019-.162a1.628 1.628 0 0 1-.917-1.467c0-.9.724-1.63 1.615-1.63.892 0 1.615.73 1.615 1.63 0 .647-.375 1.204-.917 1.467zM4.5 9.868a.72.72 0 0 1-.717-.724v-4.64c0-.4.321-.725.717-.725.396 0 .718.325.718.725v4.64c0 .4-.322.724-.718.724zm5.406-.085c.396 0 .717.325.717.725v6.376a.721.721 0 0 1-.717.724.721.721 0 0 1-.718-.724v-6.376c0-.4.321-.725.718-.725z"/>
</svg>
