<svg xmlns="http://www.w3.org/2000/svg" width="157" height="48">
    <path fill-rule="evenodd" fill="#33c99a" d="m106.548 46.932-15.028-.269-8.989-12.25-8.989 12.25-15.03.269 17.148-22.69L58.512 1.687h15.03L82.531 14.1 91.52 1.687h15.028L89.995 24.242l16.553 22.69zm-69.62-6.803h-.267c-3.781 9.227-18.099 8.38-25.484 3.586C3.536 38.782.403 29.809.983 20.991 2.324 1.347 29.37-6.184 42.561 6.976c7.671 7.651 6.044 17.427 7.024 27.223.685 4.448 1.639 7.723 3.415 12.733H39.581l-2.653-6.803zm-12.24-27.4c-6.151 0-11.135 4.943-11.135 11.042 0 6.098 4.984 11.042 11.135 11.042s11.138-4.944 11.138-11.042c0-6.099-4.987-11.042-11.138-11.042zm131.579 11.193c0 13.848-10.625 23.82-23.733 23.82-13.109 0-23.734-9.972-23.734-23.82 0-13.155 10.625-23.82 23.734-23.82 13.108 0 23.733 10.665 23.733 23.82zm-12.796.298c0 6.63-4.897 10.78-10.937 10.78-6.042 0-10.939-4.15-10.939-10.78 0-6.261 4.897-10.79 10.939-10.79 6.04 0 10.937 4.529 10.937 10.79z"/>
</svg>
