<svg xmlns="http://www.w3.org/2000/svg" width="81" height="26">
    <path fill-rule="evenodd" fill="#F9F9F9" d="m54.876 24.68-7.678-.138-4.593-6.259-4.485 6.259-7.787.138 8.458-10.82-8.458-12.299h7.787l4.485 6.297 4.593-6.297h7.678L46.419 13.86l8.457 10.82zm-35.572-3.477h-.137c-2.337 4.715-9.248 4.282-13.021 2.147C2.241 20.515.641 15.93.938 11.425 1.623 1.387 15.442-2.46 22.183 4.263c3.918 3.91 3.087 8.905 3.587 13.91.227 2.273.838 3.946 1.746 6.507H20.66l-1.356-3.477zm-5.804-14c-3.593 0-6.141 2.526-6.141 5.642 0 3.116 2.548 5.642 6.141 5.642 2.692 0 5.24-2.526 5.24-5.642 0-3.116-2.548-5.642-5.24-5.642zm66.782 5.719c0 6.722-5.43 13.008-12.128 13.008-6.697 0-11.884-6.286-11.884-13.008C56.27 6.201 61.457.751 68.154.751c6.698 0 12.128 5.45 12.128 12.171zm-6.538.051c0 3.737-2.503 5.61-5.59 5.61-2.484 0-5.589-1.873-5.589-5.61 0-3.098 3.105-5.609 5.589-5.609 3.087 0 5.59 2.511 5.59 5.609z"/>
</svg>
