<svg xmlns="http://www.w3.org/2000/svg" width="44" height="44">
    <path fill-rule="evenodd" fill="#EBEEF4" d="M21.998 0c12.151 0 22 9.849 22 21.999 0 12.151-9.849 22-22 22C9.848 43.999.1 34.15.1 21.999.1 9.849 9.848 0 21.998 0z"/>
    <path fill-rule="evenodd" fill="#333" d="M21.499 14.199c-6.552 0-8.3 1.748-8.3 8.3 0 7.021 1.748 8.301 8.3 8.301 7.021 0 8.3-1.28 8.3-8.301 0-6.552-1.279-8.3-8.3-8.3zm1.944 12.081c0 .607-.497 1.105-1.105 1.105a1.109 1.109 0 0 1-1.105-1.105v-5.054l1.199-1.287-2.521 1.457a1.108 1.108 0 0 1-1.51-.405c.569-.526-.122-1.206.405-1.51l2.981-1.721a1.114 1.114 0 0 1 1.509.405c.081.135.147.34.147.553v7.562z"/>
</svg>
