<svg xmlns="http://www.w3.org/2000/svg" width="14" height="14">
    <path fill-rule="evenodd" fill="#666" d="M6.998 0C3.135 0 .1 3.135.1 6.999s3.035 7 6.898 7a7.003 7.003 0 0 0 7.001-7A7.003 7.003 0 0 0 6.998 0zm.617 11.31v.589H6.39v-.903c-.518-.126-1.673-.539-2.114-2.072l1.155-.469c.042.154.406 1.463 1.68 1.463.651 0 1.386-.336 1.386-1.127 0-.672.103-1.022-1.596-1.421-.77.6-2.345-.721-2.345-1.84 0-.547.006-2.157 1.834-2.549v.009h1.225v-.023c1.288.224 1.756 1.253 1.862 1.561l-1.106.469c-.077-.245-.413-.407-.971-.407-.85 0-1.626-.272-1.626.73 0 .377.601.629 1.848 1.042 1.68.581 2.107 1.435 2.107 2.415 0 1.841-1.75 2.191-2.114 2.533z"/>
</svg>
