<svg xmlns="http://www.w3.org/2000/svg" width="16" height="19">
    <path fill-rule="evenodd" fill="#999" d="M12.777 18.637H3.102a2.667 2.667 0 0 1-2.664-2.664V4.772a2.667 2.667 0 0 1 2.664-2.663h2.492l.061-.168C6.1.979 6.919.333 7.94.333c1.02 0 1.938.646 2.285 1.608l.06.168h2.492a2.667 2.667 0 0 1 2.664 2.663v11.201a2.667 2.667 0 0 1-2.664 2.664zM7.94 1.426c-.738 0-1.338.834-1.338 1.337 0 .737.6 1.337 1.338 1.337.737 0 1.337-.6 1.337-1.337 0-.503-.6-1.337-1.337-1.337zm5.921 3.346c0-.597-.486-1.083-1.084-1.083h-1.901v1.198a.695.695 0 0 1-.694.695H5.698c-.383 0-.398-.312-.398-.695V3.689H3.102c-.597 0-.912.486-.912 1.083v11.201c0 .598.315 1.597.912 1.597h9.675c.598 0 1.084-.999 1.084-1.597V4.772zm-2.699 9.204H4.717a.79.79 0 0 1 0-1.58h6.445a.791.791 0 0 1 0 1.58zm0-3.811H4.717a.791.791 0 0 1 0-1.58h6.445a.791.791 0 0 1 0 1.58z"/>
</svg>
