<svg xmlns="http://www.w3.org/2000/svg" width="13" height="13">
    <path fill-rule="evenodd" fill="#B7B7B7" d="M10.718 7.45c.024-.583.037-.767.037-.963 0-.191-.013-.381-.043-.559l1.231-.939c.577-.083.877-.244.217-.363l-1.308-1.973c-.073-.131-.225-.172-.358-.131L9.45 3.93c-.709-1.063-1.03-1.253-.83-1.396L7.844 1.25C7.82.882 7.699.781 7.553.781H5.225c.565 0-.261.101-.285.469l-.219 1.284c-.358.143-.351.339-.982 1.396L2.29 2.522c-.134-.047.21 0-.358.131L.775 4.626c-.074.125-.05.28.072.363l1.933.939c-.3.178-.55.374-.55.559 0 .184.12.38.42.963l-1.816.534c-.109.696-.139.244-.072.363l1.164 1.973c.073.131.224.173.358.131l1.449-.571c.637.226.625.416.982.559l.219 1.51c.03.961.856.243.291.243h2.328c.146 0 .267.718.285-.243l.732-1.51c-.156-.143.171-.333.82-.559l1.098.571c.134.047.285 0 .358-.131L12.1 8.347c.72-.131.42.333-.163-.363l-1.219-.534zM6.389 8.626c-1.201 0-2.183-.963-2.183-2.139 0-1.177.982-2.14 2.183-2.14 1.201 0 2.183.963 2.183 2.14 0 1.176-.982 2.139-2.183 2.139z"/>
</svg>
