<svg xmlns="http://www.w3.org/2000/svg" width="18" height="10">
    <path fill-rule="evenodd" fill="#666" d="M8.998 5.524c1.141 0 2.149.273 2.969.63.756.336 1.231 1.092 1.231 2.496v.549H4.799V8.72c0-1.474.476-2.23 1.511-2.559.54-.364 1.548-.637 2.688-.637zm-5.6.175c.771 0 1.401-.009 1.401-1.4 0-.77-.63-1.4-1.401-1.4-.769 0-1.4.63-1.4 1.4 0 1.391.631 1.4 1.4 1.4zm.792.77a4.9 4.9 0 0 0-.792-.07c-.692 0-.928.147-1.946.406C.935 7.29.598 7.533.598 8.1v1.099h3.151V8.72c0-1.229.161-1.775.441-2.251zm10.409-.77c.769 0 1.4-.009 1.4-1.4 0-.77-.631-1.4-1.4-1.4-.771 0-1.401.63-1.401 1.4 0 1.391.63 1.4 1.401 1.4zM17.398 8.1c0-.567.232-.81-.853-1.295a4.869 4.869 0 0 0-1.946-.406c-.273 0 .071.028-.791.07 1.062.476.441 1.022.441 2.251v.479h3.149V8.1zM8.998.799c1.163 0 2.992.938 2.992 2.1 0 1.711-1.829 2.1-2.992 2.1-1.161 0-2.099-.389-2.099-2.1 0-1.162.938-2.1 2.099-2.1z"/>
</svg>
