<?xml version="1.0" encoding="utf-8"?>
<!-- Generator: Adobe Illustrator 21.1.0, SVG Export Plug-In . SVG Version: 6.00 Build 0)  -->
<svg version="1.1" id="Layer_1" xmlns="http://www.w3.org/2000/svg" xmlns:xlink="http://www.w3.org/1999/xlink" x="0px" y="0px"
	 viewBox="0 0 18 18" style="enable-background:new 0 0 18 18;" xml:space="preserve">
<style type="text/css">
	.st0{fill:#FFFFFF;}
</style>
<path class="st0" d="M13.2,16.1H5.8c-1,0-1.8-0.8-1.8-1.8V4.7c0-1,0.8-1.8,1.8-1.8H10c1,0,0.2,0,0.3,0.1l4.6,4.5
	c0.1,0.1,0.5,0.2,0.5,0.3v6.5C15.4,15.3,14.2,16.1,13.2,16.1z M10.8,5.2v2.6h2.7C13.4,7.9,10.8,5.2,10.8,5.2z M13.7,9.2h-3.4
	c-0.5,0-0.9-0.4-0.9-0.9V4.1H5.8c-0.3,0-0.5,0.2-0.5,0.5v9.6c0,0.3,0.2,0.5,0.5,0.5h7.4c0.3,0,0.5-0.2,0.5-0.5
	C13.7,14.3,13.7,9.2,13.7,9.2z M11.6,12.9H7.4c0.2,0-0.6-1-0.6-1.3S7.6,11,7.4,11h4.2c0.3,0,0.6,0.3,0.6,0.6
	C12.2,11.8,11.9,12.9,11.6,12.9z"/>
</svg>
