<svg xmlns="http://www.w3.org/2000/svg" width="32" height="32">
    <path fill-rule="evenodd" fill="#999" d="M15.999 30.999c-8.284 0-15-6.715-15-15 0-8.284 6.716-15 15-15 8.284 0 15 6.716 15 15 0 8.285-6.716 15-15 15zm.407-22.089c-2.012 0-3.644.79-3.644 2.776 0 1.985 1.632 3.595 3.644 3.595 2.012 0 4.084-1.61 4.084-3.595 0-1.986-2.072-2.776-4.084-2.776zm8.407 12.832c-1.084-2.512-4.434-4.344-8.407-4.344S9.82 19.23 7.998 21.742c-.17.397-.126.863.141 1.204 1.961 2.4 4.991 3.96 8.267 3.96 3.392 0 6.395-1.56 8.267-3.96.266-.341.311-.807.14-1.204z"/>
</svg>
