<svg xmlns="http://www.w3.org/2000/svg" width="25" height="25">
    <path fill-rule="evenodd" fill="#B7BDC6" d="M12.999 3.999c-4.709 0-9 4.291-9 9.001 0 4.97 4.291 9 9 9A9 9 0 0 0 22 13c0-4.71-4.03-9.001-9.001-9.001zM17.13 16.69c.293-.328.293.147 0 .44a.752.752 0 0 1-.53.22c-.192 0-.384-.074.09-.22L13 14.6l-3.07 2.53a.752.752 0 0 1-.53.22c-.192 0-.24-.074-.531-.22-.293-.293-.293-.768 0-.44l3.07-3.69-3.07-3.07A.75.75 0 1 1 9.93 8.869l3.07 3.07 3.69-3.07c-.328-.293.147-.293.44 0a.75.75 0 0 1 0 1.061L14.6 13l2.53 3.69z"/>
</svg>
