<svg xmlns="http://www.w3.org/2000/svg" width="25" height="25">
    <path fill-rule="evenodd" fill="#B7BDC6" d="M23.512 13.594c-.76.864-2.012 2.214-2.752 4.336l2.055 1.91-2.114 2.12L3.845 5.53 5.96 2.933l2.896 2.905c.834-.129.429-.253.654-.362.647-.336 1.093-.356 1.365-.509a7.906 7.906 0 0 1 4.122-.005c.302.838.84.196 1.652.652 1.151.191.701.596 1.023.648 1.898.967 3.299 2.637 5.842 5.52.455.517.454 1.988-.002 1.812zm-10.56-6.303c-.776 0-1.509.174-2.174.474l7.066 7.088a5.38 5.38 0 0 0 .463-2.171c0-2.978-2.397-5.391-5.355-5.391zm-2.554 10.13 3.205 3.214c-.218.018-.435.038-.657.038a7.935 7.935 0 0 1-1.736-.194v.001l-.071-.018a7.907 7.907 0 0 1-3.634-1.964c-2.086-1.593-4.064-3.713-5.112-4.904-.455.176-.457-1.295-.001-1.812.396-.449.772-.859 1.137-1.251l4.728 4.741a5.393 5.393 0 0 0 2.141 2.149z"/>
</svg>
