<svg xmlns="http://www.w3.org/2000/svg" width="25" height="25">
    <path fill-rule="evenodd" fill="#B7BDC6" d="M22.735 12.88c-2.583-3.714-4.53-5.407-5.938-6.388-.328-.244-.676-.202-1.04-.656-.825-.463-1.373-.615-.987-.662-1.358-.178-2.057-.274-2.779-.274-.727 0-1.433.098-2.104.279-.277.047-.732.176-1.388.516-.517.25-1.002.555-1.019.904-1.827.995-3.726 2.67-6.218 6.281-.464-.269-.463.52.001 1.044 1.066 1.208 3.076 3.357 5.197 4.97a8.047 8.047 0 0 0 3.695 1.992c.024.005.047.013.071.018v-.002c.569.398 1.159 1.088 1.765 1.088.612 0 1.207-.71 1.779-1.091v.005c.066-.015.133-.033.199-.051.025-.006.221-.013.471-.019l.41-.012c.519-.345 1.676-1 2.622-1.88 2.145-1.619 4.185-3.798 5.262-5.018.463-.524.464-1.313.001-1.044zm-10.737 5.584c-3.006 0-5.444-2.294-5.444-5.465 0-3.018 2.438-5.464 5.444-5.464 3.502 0 5.445 2.446 5.445 5.464 0 3.171-1.943 5.465-5.445 5.465zm2.97-5.465a2.976 2.976 0 0 1-2.97 2.981c-1.64 0-2.708-1.335-2.708-2.981s1.068-2.809 2.708-2.809c1.64 0 2.97 1.163 2.97 2.809z"/>
</svg>
